<?xml version="1.0" encoding="UTF-8" standalone="no"?>
<!-- Created with Inkscape (http://www.inkscape.org/) -->

<svg
   xmlns:dc="http://purl.org/dc/elements/1.1/"
   xmlns:cc="http://creativecommons.org/ns#"
   xmlns:rdf="http://www.w3.org/1999/02/22-rdf-syntax-ns#"
   xmlns:svg="http://www.w3.org/2000/svg"
   xmlns="http://www.w3.org/2000/svg"
   xmlns:sodipodi="http://sodipodi.sourceforge.net/DTD/sodipodi-0.dtd"
   xmlns:inkscape="http://www.inkscape.org/namespaces/inkscape"
   width="194.60223"
   height="344.00003"
   id="svg3767"
   version="1.1"
   inkscape:version="0.92.2 2405546, 2018-03-11"
   sodipodi:docname="AlAkhira.svg">
  <defs
     id="defs3769" />
  <sodipodi:namedview
     id="base"
     pagecolor="#5b5b5b"
     bordercolor="#666666"
     borderopacity="1.0"
     inkscape:pageopacity="0.50980392"
     inkscape:pageshadow="2"
     inkscape:zoom="0.32747287"
     inkscape:cx="818.31207"
     inkscape:cy="298.6093"
     inkscape:document-units="px"
     inkscape:current-layer="layer1"
     showgrid="false"
     fit-margin-top="22"
     fit-margin-left="22"
     fit-margin-right="22"
     fit-margin-bottom="22"
     inkscape:window-width="1280"
     inkscape:window-height="768"
     inkscape:window-x="0"
     inkscape:window-y="32"
     inkscape:window-maximized="1" />
  <metadata
     id="metadata3772">
    <rdf:RDF>
      <cc:Work
         rdf:about="">
        <dc:format>image/svg+xml</dc:format>
        <dc:type
           rdf:resource="http://purl.org/dc/dcmitype/StillImage" />
        <dc:title></dc:title>
      </cc:Work>
    </rdf:RDF>
  </metadata>
  <g
     inkscape:label="Layer 1"
     inkscape:groupmode="layer"
     id="layer1"
     transform="translate(-487.94893,-769.12006)">
    <path
       style="fill:#ffffff;fill-opacity:1;fill-rule:evenodd;stroke:none;stroke-width:0.29195446"
       d="m 636.91841,817.04929 c -0.93967,5.63523 -8.28224,11.87056 -14.52474,2.79181 -9.01385,22.41213 -65.83803,69.2059 -96.91975,45.8551 -3.63641,-3.9479 -5.30741,-9.28455 -3.79541,-14.53386 -3.40996,5.41568 -5.2821,15.05546 -0.0365,20.76526 27.11649,23.42568 82.54398,-21.79631 100.69691,-44.80588 0.23446,0.94825 5.88167,6.0631 9.40641,3.3666 4.84814,-4.29315 9.48662,-8.18459 12.09786,-14.9353 0.80126,18.13707 9.67601,33.73938 11.16866,53.18758 3.98719,36.49398 -22.92435,89.7095 -22.92435,89.7095 l -70.49301,132.67 c 0,0 28.9966,-44.5692 44.67026,-71.9012 -2.22836,8.2871 -0.901,26.7753 -0.901,26.7753 0,0 4.01665,-34.8403 16.14392,-56.67363 12.26542,-25.8441 38.54822,-80.97697 39.03531,-117.81713 0.3641,-27.53822 -11.54292,-27.88995 -14.52838,-69.10661 2e-5,-0.009 -10e-6,-0.0184 0,-0.0274 -0.0917,-4.02788 -0.39334,-7.42239 -0.5474,-11.24937 -2.94829,10.68635 -5.97061,20.15351 -8.5488,25.92919 z m -14.46087,9.92645 c -0.0365,0.0465 -0.0818,0.0902 -0.11861,0.13686 -0.0216,-0.0962 0.0152,-0.14429 0.11861,-0.13686 z"
       id="path4392"
       inkscape:connector-curvature="0"
       sodipodi:nodetypes="ccccccccccccccsccccccc" />
    <path
       style="fill:#ffffff;fill-opacity:1;fill-rule:evenodd;stroke:none;stroke-width:0.29195446"
       d="m 632.47522,794.60529 -1.11345,12.33543 c 2.34734,22.08074 9.33444,40.05051 -3.3206,57.72452 -2.74755,-8.269 -3.14212,-17.85418 -2.87393,-25.73761 -0.55588,0.72121 -2.29656,7.36171 -2.54548,10.39175 -0.0884,6.58886 0.50938,12.92777 2.37213,18.82194 -7.01535,5.84393 -14.236,12.55043 -19.42409,18.4205 -2.73665,3.40053 -4.45584,7.31803 -5.71136,11.45921 -0.88598,3.57729 -1.31048,7.24389 -0.91236,10.92092 0.25071,2.87253 0.12171,4.01561 1.14957,8.78601 0.2466,-2.55417 1.36239,-3.84983 2.89994,-5.65992 9.49079,-8.7851 32.80262,-22.79609 45.47526,-21.56137 -3.50456,-5.23358 -5.299,-7.50046 -9.76422,-10.86052 -4.21259,-2.742 -7.18097,-6.70932 -9.24219,-11.29499 6.9456,-6.66967 8.98436,-17.36323 9.74398,-25.60988 1.27261,-16.3865 -4.03184,-33.43552 -6.7332,-48.13599 z m -6.42299,76.47382 c 1.93679,4.82204 4.83428,9.31099 9.04146,13.34779 -0.86767,3.445 -27.04371,19.90403 -29.00833,19.25607 -6.32384,-8.17894 12.20614,-27.59608 19.96687,-32.60386 z"
       id="path4398"
       inkscape:connector-curvature="0"
       sodipodi:nodetypes="cccccccccccccccccccc" />
    <path
       style="fill:#ffffff;fill-opacity:1;fill-rule:evenodd;stroke:none;stroke-width:0.29195446"
       d="m 569.1128,902.87646 c -3.93477,0.19424 -12.76429,5.64584 -1.57879,-16.33051 12.51443,-13.41562 29.96609,-14.09207 45.936,-12.83417 -11.61747,8.45584 -18.51305,13.15558 -28.2039,23.85839 -3.78802,5.69919 -9.80809,13.32404 -2.64183,18.86433 0.0423,5.27541 2.47595,5.40772 4.83511,9.8099 -17.80692,14.89981 -12.42879,3.772 4.22989,10.93454 -5.81588,4.23346 -9.81205,7.74262 -13.55413,10.62856 3.71663,0.39012 24.46175,-0.28953 29.43754,3.44739 8.46929,5.62737 11.44993,14.27706 8.04268,22.76489 -10.87451,30.62952 -49.55009,48.66562 -71.15108,58.28892 -15.77296,0.8594 -24.25281,-2.7705 -30.41875,-11.7175 -5.34599,-7.7572 -5.5411,-20.68582 -0.10536,-28.26249 12.53077,-18.42105 26.75047,-26.50268 34.54995,-48.17608 4.9355,-13.38652 6.76979,-36.05458 -5.59086,-40.88759 0.83816,-3.49215 4.72739,-19.106 4.71608,-19.20725 6.1865,17.62287 8.53349,21.84037 10.00856,43.60716 -8.81844,46.45998 -37.16732,44.64878 -42.79706,75.85475 1.74795,12.041 7.42831,18.9433 17.74636,22.5798 14.95518,3.5599 44.37973,-11.4073 65.1744,-31.08521 8.59783,-11.29165 14.87452,-19.92366 11.50508,-32.15941 -3.21368,-9.24081 -33.31338,-12.03933 -41.86738,-9.48539 5.01335,-6.40657 9.87094,-10.62827 15.79589,-13.94716 -0.6291,-2.17958 -10.24009,0.26462 -14.82743,1.8203 3.44615,-10.30626 7.62856,-11.68642 10.69251,-14.78218 -1.62877,-2.16073 -2.24881,0.95 -1.26859,-4.28249 0.26692,-3.82502 -1.06057,-7.10388 -5.38672,-7.39136 4.22338,-13.63004 10.88944,-23.8502 21.37682,-32.62801 -8.42192,-2.84416 -18.96606,3.09812 -24.23268,10.35319 -5.27099,9.12713 0.45437,12.56983 7.49799,0.72464 l -2.16837,4.27551 c -1.13302,1.97888 -5.24795,4.30423 -5.75193,5.36453 z"
       id="path4410"
       inkscape:connector-curvature="0"
       sodipodi:nodetypes="cccccccccccccccccccccccccccccccc" />
    <path
       style="fill:#ffffff;fill-opacity:1;fill-rule:evenodd;stroke:none;stroke-width:0.29195446"
       d="m 559.38692,977.54093 c 3.53382,1.50212 3.41781,1.4335 6.38834,2.34247 2.21544,5.07145 3.31302,6.03855 4.05292,8.81257 1.47979,5.54804 0.66468,11.87173 -3.32819,15.80883 -3.49158,3.048 -8.18071,5.8292 -12.32997,6.0618 -6.65142,-0.7297 -12.77924,-12.09265 -10.40784,-19.77317 2.12757,-5.15519 6.53425,-8.49479 8.78066,-13.62318 7.25918,-12.73583 12.3579,-26.38857 9.50156,-41.65464 1.00233,-1.5262 1.50148,-7.27562 1.92876,-9.29409 3.53019,9.69358 2.53376,26.06155 -1.41021,35.49629 -2.99232,8.02553 -7.42777,15.53196 -12.99342,21.46615 -4.13421,5.41035 -3.87318,13.97999 0.9506,18.65554 5.22606,5.6003 15.02043,4.5154 18.58291,-2.78908 1.73648,-4.59884 -1.43107,-9.08025 -3.63057,-12.67304 -1.99808,-2.9725 -4.25841,-5.71598 -6.08555,-8.83645 z"
       id="path4412"
       inkscape:connector-curvature="0"
       sodipodi:nodetypes="ccscccccccccccc" />
    <path
       style="fill:#ffffff;fill-opacity:1;fill-rule:evenodd;stroke:none;stroke-width:0.29195446"
       id="path4418"
       d="m 574.11116,873.75058 c -0.75172,1.80695 -1.25496,3.73347 -2.53312,5.25921 -0.62793,0.74955 -1.59399,1.052 -2.1677,1.8409 0,0 -0.24237,0.19382 -0.24237,0.19382 v 0 c -0.21928,0.11753 -1.87731,1.37905 -1.96101,1.39362 -1.14853,0.19987 2.05731,-4.36073 1.0794,-4.04421 0,0 5.8248,-4.64334 5.8248,-4.64334 z"
       inkscape:connector-curvature="0" />
    <path
       style="fill:#ffffff;fill-opacity:1;fill-rule:evenodd;stroke:none;stroke-width:0.29195446"
       id="path4424"
       d="m 560.03531,958.65151 c -0.90872,3.01406 -1.27102,3.51152 -2.08749,5.60041 -0.73345,1.14364 -2.12758,2.15072 -5.16753,4.56187 -3.86552,-2.20979 -1.55066,-10.84441 7.25502,-10.16228 z"
       inkscape:connector-curvature="0"
       sodipodi:nodetypes="cccc" />
    <path
       style="fill:#ffffff;fill-opacity:1;fill-rule:evenodd;stroke:none;stroke-width:0.29195446"
       id="path4426"
       d="m 566.8274,964.23678 c 1.91639,6.11331 -1.45261,11.04027 -7.94548,9.44923 0.57945,-2.3419 1.46599,-3.18025 1.81581,-4.34735 z"
       inkscape:connector-curvature="0"
       sodipodi:nodetypes="cccc" />
  </g>
</svg>
